<?xml version="1.0" encoding="UTF-8"?>
<svg width="800" height="800" viewBox="0 0 800 800" fill="none" xmlns="http://www.w3.org/2000/svg">
  <!-- Background Grid -->
  <pattern id="grid" x="0" y="0" width="40" height="40" patternUnits="userSpaceOnUse">
    <path d="M 40 0 L 0 0 0 40" fill="none" stroke="currentColor" stroke-opacity="0.1"/>
  </pattern>
  <rect width="800" height="800" fill="url(#grid)"/>
  
  <!-- Main Elements -->
  <g transform="translate(100, 100)">
    <!-- Code Window -->
    <rect x="50" y="50" width="300" height="200" rx="10" fill="#2A2A2A"/>
    <rect x="50" y="50" width="300" height="30" rx="10" fill="#1A1A1A"/>
    <circle cx="70" cy="65" r="5" fill="#FF5F57"/>
    <circle cx="90" cy="65" r="5" fill="#FFBD2E"/>
    <circle cx="110" cy="65" r="5" fill="#28C840"/>
    
    <!-- Code Lines -->
    <rect x="70" y="100" width="200" height="10" rx="5" fill="#6366F1" fill-opacity="0.6"/>
    <rect x="70" y="120" width="150" height="10" rx="5" fill="#8B5CF6" fill-opacity="0.6"/>
    <rect x="70" y="140" width="180" height="10" rx="5" fill="#EC4899" fill-opacity="0.6"/>
    <rect x="70" y="160" width="120" height="10" rx="5" fill="#6366F1" fill-opacity="0.6"/>
    
    <!-- Browser Window -->
    <rect x="400" y="50" width="300" height="200" rx="10" fill="#FFFFFF" fill-opacity="0.1"/>
    <rect x="400" y="50" width="300" height="30" rx="10" fill="#1A1A1A"/>
    <circle cx="420" cy="65" r="5" fill="#FF5F57"/>
    <circle cx="440" cy="65" r="5" fill="#FFBD2E"/>
    <circle cx="460" cy="65" r="5" fill="#28C840"/>
    
    <!-- UI Elements -->
    <rect x="420" y="100" width="260" height="30" rx="5" fill="#6366F1" fill-opacity="0.3"/>
    <rect x="420" y="140" width="200" height="20" rx="5" fill="#8B5CF6" fill-opacity="0.3"/>
    <rect x="420" y="170" width="180" height="20" rx="5" fill="#EC4899" fill-opacity="0.3"/>
  </g>
  
  <!-- Decorative Elements -->
  <circle cx="150" cy="650" r="100" fill="#6366F1" fill-opacity="0.1"/>
  <circle cx="650" cy="150" r="80" fill="#8B5CF6" fill-opacity="0.1"/>
  <circle cx="700" cy="700" r="60" fill="#EC4899" fill-opacity="0.1"/>
</svg> 