<?xml version="1.0" encoding="UTF-8"?>
<svg width="800" height="800" viewBox="0 0 800 800" fill="none" xmlns="http://www.w3.org/2000/svg">
  <!-- Background Grid -->
  <defs>
    <pattern id="grid" width="40" height="40" patternUnits="userSpaceOnUse">
      <path d="M 40 0 L 0 0 0 40" fill="none" stroke="currentColor" stroke-opacity="0.1"/>
    </pattern>
  </defs>
  <rect width="800" height="800" fill="url(#grid)"/>
  
  <!-- Main Elements -->
  <g transform="translate(100, 100)">
    <!-- Code Window -->
    <rect x="50" y="50" width="300" height="200" rx="8" fill="#2A2A2A" class="code-window"/>
    <circle cx="80" cy="80" r="6" fill="#FF5F56"/>
    <circle cx="104" cy="80" r="6" fill="#FFBD2E"/>
    <circle cx="128" cy="80" r="6" fill="#27C93F"/>
    <rect x="70" y="100" width="260" height="12" rx="2" fill="#6366F1" fill-opacity="0.5"/>
    <rect x="70" y="120" width="200" height="12" rx="2" fill="#6366F1" fill-opacity="0.3"/>
    <rect x="70" y="140" width="180" height="12" rx="2" fill="#6366F1" fill-opacity="0.5"/>
    
    <!-- Browser Window -->
    <rect x="250" y="150" width="350" height="250" rx="8" fill="#3B3B3B" class="browser-window"/>
    <rect x="250" y="150" width="350" height="40" rx="8" fill="#2A2A2A"/>
    <circle cx="280" cy="170" r="6" fill="#FF5F56"/>
    <circle cx="304" cy="170" r="6" fill="#FFBD2E"/>
    <circle cx="328" cy="170" r="6" fill="#27C93F"/>
    
    <!-- UI Elements -->
    <rect x="270" y="210" width="310" height="40" rx="4" fill="#4F46E5"/>
    <rect x="270" y="270" width="150" height="100" rx="4" fill="#6366F1"/>
    <rect x="430" y="270" width="150" height="100" rx="4" fill="#6366F1"/>
  </g>
  
  <!-- Decorative Elements -->
  <circle cx="600" cy="200" r="100" fill="#4F46E5" fill-opacity="0.1"/>
  <circle cx="200" cy="600" r="150" fill="#6366F1" fill-opacity="0.1"/>
  <circle cx="700" cy="500" r="80" fill="#4F46E5" fill-opacity="0.1"/>
</svg> 